# xmcd
#
# Track frame offsets:
#	150
#	16529
#	34373
#	58094
#	85614
#	95974
#	112420
#	134752
#	150277
#	171286
#	190821
#	206890
#	225431
#
# Disc length: 3259 seconds
#
# Revision: 0
# Processed by: cddbd v1.5.1PL2 Copyright (c) Steve Scherf et al.
# Submitted via: EasyCDDAExtractor 5.0.4.1
#
DISCID=b10cb90d
DTITLE=Whit Hill and The Postcards - Farsighted
DYEAR=2006
DGENRE=Country
TTITLE0=Clean My Room
TTITLE1=Lotta Yer Love
TTITLE2=Picture Of A Girl
TTITLE3=Sweetie Momma
TTITLE4=Hideaway
TTITLE5=Five Lanes Of Traffic
TTITLE6=Farsighted
TTITLE7=Regimen
TTITLE8=California Maybe
TTITLE9=Fall
TTITLE10=All These Things
TTITLE11=Little Bitty Boy
TTITLE12=Better
EXTD=
EXTT0=
EXTT1=
EXTT2=
EXTT3=
EXTT4=
EXTT5=
EXTT6=
EXTT7=
EXTT8=
EXTT9=
EXTT10=
EXTT11=
EXTT12=
PLAYORDER=
